<svg width="20" height="19" viewBox="0 0 20 19" fill="none" xmlns="http://www.w3.org/2000/svg">
<path d="M8 1C8 5.13371 12.2245 10 16 10C12.0791 10 8 14.8159 8 19C8 14.7886 3.66662 10 0 10C3.81208 10 8 5.13371 8 1Z" fill="#5C198A"/>
<path d="M16 12C16 13.6076 17.5842 15.5 19 15.5C17.5297 15.5 16 17.3729 16 19C16 17.3622 14.375 15.5 13 15.5C14.4295 15.5 16 13.6076 16 12Z" fill="#5C198A"/>
<path d="M16.5 0C16.5 1.8372 18.3482 4 20 4C18.2846 4 16.5 6.1404 16.5 8C16.5 6.12828 14.6041 4 13 4C14.6678 4 16.5 1.8372 16.5 0Z" fill="#5C198A"/>
</svg>
